%TF.GenerationSoftware,KiCad,Pcbnew,7.0.10*%
%TF.CreationDate,2024-04-02T08:51:26+02:00*%
%TF.ProjectId,rj45_breakout,726a3435-5f62-4726-9561-6b6f75742e6b,rev?*%
%TF.SameCoordinates,Original*%
%TF.FileFunction,Copper,L1,Top*%
%TF.FilePolarity,Positive*%
%FSLAX46Y46*%
G04 Gerber Fmt 4.6, Leading zero omitted, Abs format (unit mm)*
G04 Created by KiCad (PCBNEW 7.0.10) date 2024-04-02 08:51:26*
%MOMM*%
%LPD*%
G01*
G04 APERTURE LIST*
G04 Aperture macros list*
%AMRoundRect*
0 Rectangle with rounded corners*
0 $1 Rounding radius*
0 $2 $3 $4 $5 $6 $7 $8 $9 X,Y pos of 4 corners*
0 Add a 4 corners polygon primitive as box body*
4,1,4,$2,$3,$4,$5,$6,$7,$8,$9,$2,$3,0*
0 Add four circle primitives for the rounded corners*
1,1,$1+$1,$2,$3*
1,1,$1+$1,$4,$5*
1,1,$1+$1,$6,$7*
1,1,$1+$1,$8,$9*
0 Add four rect primitives between the rounded corners*
20,1,$1+$1,$2,$3,$4,$5,0*
20,1,$1+$1,$4,$5,$6,$7,0*
20,1,$1+$1,$6,$7,$8,$9,0*
20,1,$1+$1,$8,$9,$2,$3,0*%
G04 Aperture macros list end*
%TA.AperFunction,ComponentPad*%
%ADD10R,2.000000X2.000000*%
%TD*%
%TA.AperFunction,ComponentPad*%
%ADD11C,3.900000*%
%TD*%
%TA.AperFunction,ConnectorPad*%
%ADD12C,7.000000*%
%TD*%
%TA.AperFunction,ComponentPad*%
%ADD13RoundRect,0.250000X-0.600000X-0.750000X0.600000X-0.750000X0.600000X0.750000X-0.600000X0.750000X0*%
%TD*%
%TA.AperFunction,ComponentPad*%
%ADD14O,1.700000X2.000000*%
%TD*%
%TA.AperFunction,ComponentPad*%
%ADD15R,1.500000X1.500000*%
%TD*%
%TA.AperFunction,ComponentPad*%
%ADD16C,1.500000*%
%TD*%
%TA.AperFunction,ComponentPad*%
%ADD17RoundRect,0.250000X-0.600000X-0.725000X0.600000X-0.725000X0.600000X0.725000X-0.600000X0.725000X0*%
%TD*%
%TA.AperFunction,ComponentPad*%
%ADD18O,1.700000X1.950000*%
%TD*%
%TA.AperFunction,Conductor*%
%ADD19C,0.500000*%
%TD*%
G04 APERTURE END LIST*
D10*
%TO.P,3,1,Pin_1*%
%TO.N,Net-(J11-Pin_1)*%
X26162000Y-17780000D03*
%TD*%
%TO.P,1,1,Pin_1*%
%TO.N,Net-(J2-Pin_1)*%
X19050000Y-17780000D03*
%TD*%
%TO.P,6,1,Pin_1*%
%TO.N,Net-(J3-Pin_2)*%
X36830000Y-17780000D03*
%TD*%
D11*
%TO.P, ,1*%
%TO.N,N/C*%
X20701000Y-10033000D03*
D12*
X20701000Y-10033000D03*
%TD*%
D10*
%TO.P,5,1,Pin_1*%
%TO.N,Net-(J3-Pin_1)*%
X33274000Y-17780000D03*
%TD*%
D13*
%TO.P,7-8,1,Pin_1*%
%TO.N,Net-(J4-Pin_1)*%
X39898000Y-10795000D03*
D14*
%TO.P,7-8,2,Pin_2*%
%TO.N,Net-(J4-Pin_2)*%
X42398000Y-10795000D03*
%TD*%
D15*
%TO.P,RJ45,1*%
%TO.N,Net-(J2-Pin_1)*%
X4191000Y-4826000D03*
D16*
%TO.P,RJ45,2*%
%TO.N,Net-(J10-Pin_1)*%
X5461000Y-2286000D03*
%TO.P,RJ45,3*%
%TO.N,Net-(J11-Pin_1)*%
X6731000Y-4826000D03*
%TO.P,RJ45,4*%
%TO.N,Net-(J12-Pin_1)*%
X8001000Y-2286000D03*
%TO.P,RJ45,5*%
%TO.N,Net-(J3-Pin_1)*%
X9271000Y-4826000D03*
%TO.P,RJ45,6*%
%TO.N,Net-(J3-Pin_2)*%
X10541000Y-2286000D03*
%TO.P,RJ45,7*%
%TO.N,Net-(J4-Pin_1)*%
X11811000Y-4826000D03*
%TO.P,RJ45,8*%
%TO.N,Net-(J4-Pin_2)*%
X13081000Y-2286000D03*
%TD*%
D10*
%TO.P,8,1,Pin_1*%
%TO.N,Net-(J4-Pin_2)*%
X43942000Y-17780000D03*
%TD*%
%TO.P,7,1,Pin_1*%
%TO.N,Net-(J4-Pin_1)*%
X40386000Y-17780000D03*
%TD*%
%TO.P,2,1,Pin_1*%
%TO.N,Net-(J10-Pin_1)*%
X22606000Y-17780000D03*
%TD*%
D17*
%TO.P,1-4,1,Pin_1*%
%TO.N,Net-(J2-Pin_1)*%
X34925000Y-3429000D03*
D18*
%TO.P,1-4,2,Pin_2*%
%TO.N,Net-(J10-Pin_1)*%
X37425000Y-3429000D03*
%TO.P,1-4,3,Pin_3*%
%TO.N,Net-(J11-Pin_1)*%
X39925000Y-3429000D03*
%TO.P,1-4,4,Pin_4*%
%TO.N,Net-(J12-Pin_1)*%
X42425000Y-3429000D03*
%TD*%
D10*
%TO.P,4,1,Pin_1*%
%TO.N,Net-(J12-Pin_1)*%
X29718000Y-17780000D03*
%TD*%
D13*
%TO.P,5-6,1,Pin_1*%
%TO.N,Net-(J3-Pin_1)*%
X31028000Y-10795000D03*
D14*
%TO.P,5-6,2,Pin_2*%
%TO.N,Net-(J3-Pin_2)*%
X33528000Y-10795000D03*
%TD*%
D19*
%TO.N,Net-(J2-Pin_1)*%
X13559302Y-16324000D02*
X17653000Y-16324000D01*
X19050000Y-17721000D02*
X19050000Y-17780000D01*
X17653000Y-16324000D02*
X19050000Y-17721000D01*
X4191000Y-6955698D02*
X13559302Y-16324000D01*
X4191000Y-4826000D02*
X4191000Y-6955698D01*
%TO.N,Net-(J10-Pin_1)*%
X5461000Y-7235748D02*
X5461000Y-2286000D01*
X13849252Y-15624000D02*
X5461000Y-7235748D01*
X22606000Y-17780000D02*
X20450000Y-15624000D01*
X20450000Y-15624000D02*
X13849252Y-15624000D01*
%TO.N,Net-(J11-Pin_1)*%
X14139202Y-14924000D02*
X6731000Y-7515798D01*
X6731000Y-7515798D02*
X6731000Y-4826000D01*
X23306000Y-14924000D02*
X14139202Y-14924000D01*
X26162000Y-17780000D02*
X23306000Y-14924000D01*
%TO.N,Net-(J12-Pin_1)*%
X26162000Y-14224000D02*
X29718000Y-17780000D01*
X14429152Y-14224000D02*
X26162000Y-14224000D01*
X8001000Y-7795848D02*
X14429152Y-14224000D01*
X8001000Y-2286000D02*
X8001000Y-7795848D01*
%TO.N,Net-(J3-Pin_1)*%
X9271000Y-4973006D02*
X11023994Y-6726000D01*
X33274000Y-13081000D02*
X33274000Y-17780000D01*
X31028000Y-10795000D02*
X31028000Y-10835000D01*
X31028000Y-10835000D02*
X33274000Y-13081000D01*
X11023994Y-6726000D02*
X12598007Y-6726000D01*
X9271000Y-4826000D02*
X9271000Y-4973006D01*
X24698574Y-4445000D02*
X31028000Y-10774425D01*
X31028000Y-10774425D02*
X31028000Y-10795000D01*
X14879007Y-4445000D02*
X24698574Y-4445000D01*
X12598007Y-6726000D02*
X14879007Y-4445000D01*
%TO.N,Net-(J3-Pin_2)*%
X10541000Y-5253057D02*
X11313943Y-6026000D01*
X30099000Y-8855476D02*
X31588476Y-8855476D01*
X33528000Y-10795000D02*
X36830000Y-14097000D01*
X31588476Y-8855476D02*
X33528000Y-10795000D01*
X36830000Y-14097000D02*
X36830000Y-17780000D01*
X12308057Y-6026000D02*
X14648057Y-3686000D01*
X24929524Y-3686000D02*
X30099000Y-8855476D01*
X11313943Y-6026000D02*
X12308057Y-6026000D01*
X10541000Y-2286000D02*
X10541000Y-5253057D01*
X14648057Y-3686000D02*
X24929524Y-3686000D01*
%TO.N,Net-(J4-Pin_1)*%
X39898000Y-17292000D02*
X40386000Y-17780000D01*
X25219474Y-2986000D02*
X30357237Y-8123763D01*
X14162000Y-2986000D02*
X25219474Y-2986000D01*
X11811000Y-4826000D02*
X12322000Y-4826000D01*
X39898000Y-10795000D02*
X39898000Y-17292000D01*
X30357237Y-8123763D02*
X37226763Y-8123763D01*
X37226763Y-8123763D02*
X39898000Y-10795000D01*
X12322000Y-4826000D02*
X14162000Y-2986000D01*
%TO.N,Net-(J4-Pin_2)*%
X25509424Y-2286000D02*
X30647187Y-7423763D01*
X13081000Y-2286000D02*
X25509424Y-2286000D01*
X39026763Y-7423763D02*
X42398000Y-10795000D01*
X42398000Y-10795000D02*
X42398000Y-16236000D01*
X42398000Y-16236000D02*
X43942000Y-17780000D01*
X30647187Y-7423763D02*
X39026763Y-7423763D01*
%TD*%
%TA.AperFunction,NonConductor*%
G36*
X45789539Y-147185D02*
G01*
X45835294Y-199989D01*
X45846500Y-251500D01*
X45846500Y-19687500D01*
X45826815Y-19754539D01*
X45774011Y-19800294D01*
X45722500Y-19811500D01*
X124500Y-19811500D01*
X57461Y-19791815D01*
X11706Y-19739011D01*
X500Y-19687500D01*
X500Y-11243763D01*
X1066787Y-11243763D01*
X1096413Y-11513013D01*
X1096415Y-11513024D01*
X1144722Y-11697799D01*
X1164928Y-11775088D01*
X1270870Y-12024390D01*
X1402622Y-12240273D01*
X1411979Y-12255605D01*
X1411986Y-12255615D01*
X1585253Y-12463819D01*
X1585259Y-12463824D01*
X1674553Y-12543831D01*
X1786998Y-12644582D01*
X2012910Y-12794044D01*
X2258176Y-12909020D01*
X2258183Y-12909022D01*
X2258185Y-12909023D01*
X2517557Y-12987057D01*
X2517564Y-12987058D01*
X2517569Y-12987060D01*
X2785561Y-13026500D01*
X2785566Y-13026500D01*
X2988629Y-13026500D01*
X2988631Y-13026500D01*
X2988636Y-13026499D01*
X2988648Y-13026499D01*
X3026191Y-13023750D01*
X3191156Y-13011677D01*
X3303758Y-12986593D01*
X3455546Y-12952782D01*
X3455548Y-12952781D01*
X3455553Y-12952780D01*
X3708558Y-12856014D01*
X3944777Y-12723441D01*
X4159177Y-12557888D01*
X4347186Y-12362881D01*
X4504799Y-12142579D01*
X4586591Y-11983492D01*
X4628649Y-11901690D01*
X4628651Y-11901684D01*
X4628656Y-11901675D01*
X4716118Y-11645305D01*
X4765319Y-11378933D01*
X4775212Y-11108235D01*
X4745586Y-10838982D01*
X4677072Y-10576912D01*
X4571130Y-10327610D01*
X4430018Y-10096390D01*
X4340747Y-9989119D01*
X4256746Y-9888180D01*
X4256740Y-9888175D01*
X4055002Y-9707418D01*
X3829092Y-9557957D01*
X3829090Y-9557956D01*
X3583824Y-9442980D01*
X3583819Y-9442978D01*
X3583814Y-9442976D01*
X3324442Y-9364942D01*
X3324428Y-9364939D01*
X3208791Y-9347921D01*
X3056439Y-9325500D01*
X2853369Y-9325500D01*
X2853351Y-9325500D01*
X2650844Y-9340323D01*
X2650831Y-9340325D01*
X2386453Y-9399217D01*
X2386446Y-9399220D01*
X2133439Y-9495987D01*
X1897226Y-9628557D01*
X1897224Y-9628558D01*
X1897223Y-9628559D01*
X1881877Y-9640409D01*
X1682822Y-9794112D01*
X1494822Y-9989109D01*
X1494816Y-9989116D01*
X1337202Y-10209419D01*
X1337199Y-10209424D01*
X1213350Y-10450309D01*
X1213343Y-10450327D01*
X1125884Y-10706685D01*
X1125881Y-10706699D01*
X1076681Y-10973068D01*
X1076680Y-10973075D01*
X1066787Y-11243763D01*
X500Y-11243763D01*
X500Y-5623870D01*
X2940500Y-5623870D01*
X2940501Y-5623876D01*
X2946908Y-5683483D01*
X2997202Y-5818328D01*
X2997206Y-5818335D01*
X3083452Y-5933544D01*
X3083455Y-5933547D01*
X3198664Y-6019793D01*
X3198671Y-6019797D01*
X3333517Y-6070091D01*
X3341062Y-6071874D01*
X3340523Y-6074151D01*
X3394287Y-6096408D01*
X3434147Y-6153793D01*
X3440500Y-6192975D01*
X3440500Y-6891992D01*
X3439191Y-6909961D01*
X3435710Y-6933723D01*
X3440028Y-6983066D01*
X3440500Y-6993874D01*
X3440500Y-6999409D01*
X3444098Y-7030193D01*
X3444464Y-7033781D01*
X3451000Y-7108489D01*
X3452461Y-7115565D01*
X3452403Y-7115576D01*
X3454034Y-7122935D01*
X3454092Y-7122922D01*
X3455757Y-7129947D01*
X3481400Y-7200403D01*
X3482582Y-7203805D01*
X3506182Y-7275024D01*
X3509236Y-7281572D01*
X3509182Y-7281596D01*
X3512470Y-7288386D01*
X3512521Y-7288361D01*
X3515761Y-7294812D01*
X3556979Y-7357482D01*
X3558889Y-7360480D01*
X3584029Y-7401237D01*
X3598289Y-7424356D01*
X3602766Y-7430017D01*
X3602719Y-7430054D01*
X3607482Y-7435900D01*
X3607528Y-7435862D01*
X3612173Y-7441397D01*
X3666707Y-7492847D01*
X3669295Y-7495361D01*
X12983572Y-16809638D01*
X12995353Y-16823270D01*
X13009690Y-16842528D01*
X13047639Y-16874372D01*
X13055612Y-16881679D01*
X13059519Y-16885586D01*
X13059525Y-16885591D01*
X13083839Y-16904816D01*
X13086620Y-16907080D01*
X13114258Y-16930271D01*
X13144091Y-16955305D01*
X13150120Y-16959270D01*
X13150087Y-16959319D01*
X13156449Y-16963372D01*
X13156481Y-16963321D01*
X13162621Y-16967108D01*
X13162625Y-16967111D01*
X13201279Y-16985135D01*
X13230622Y-16998819D01*
X13233868Y-17000391D01*
X13300864Y-17034038D01*
X13307659Y-17036511D01*
X13307638Y-17036567D01*
X13314759Y-17039043D01*
X13314778Y-17038986D01*
X13321621Y-17041253D01*
X13321629Y-17041257D01*
X13395197Y-17056447D01*
X13398530Y-17057186D01*
X13471581Y-17074500D01*
X13471583Y-17074500D01*
X13471587Y-17074501D01*
X13478755Y-17075339D01*
X13478748Y-17075398D01*
X13486246Y-17076164D01*
X13486252Y-17076105D01*
X13493441Y-17076734D01*
X13493445Y-17076733D01*
X13493446Y-17076734D01*
X13568432Y-17074552D01*
X13572039Y-17074500D01*
X17290770Y-17074500D01*
X17357809Y-17094185D01*
X17378446Y-17110814D01*
X17513182Y-17245549D01*
X17546666Y-17306870D01*
X17549500Y-17333229D01*
X17549500Y-18827870D01*
X17549501Y-18827876D01*
X17555908Y-18887483D01*
X17606202Y-19022328D01*
X17606206Y-19022335D01*
X17692452Y-19137544D01*
X17692455Y-19137547D01*
X17807664Y-19223793D01*
X17807671Y-19223797D01*
X17942517Y-19274091D01*
X17942516Y-19274091D01*
X17949444Y-19274835D01*
X18002127Y-19280500D01*
X20097872Y-19280499D01*
X20157483Y-19274091D01*
X20292331Y-19223796D01*
X20407546Y-19137546D01*
X20493796Y-19022331D01*
X20544091Y-18887483D01*
X20550500Y-18827873D01*
X20550499Y-17085227D01*
X20570184Y-17018189D01*
X20622987Y-16972434D01*
X20692146Y-16962490D01*
X20755702Y-16991515D01*
X20762180Y-16997547D01*
X21069181Y-17304548D01*
X21102666Y-17365871D01*
X21105500Y-17392229D01*
X21105500Y-18827870D01*
X21105501Y-18827876D01*
X21111908Y-18887483D01*
X21162202Y-19022328D01*
X21162206Y-19022335D01*
X21248452Y-19137544D01*
X21248455Y-19137547D01*
X21363664Y-19223793D01*
X21363671Y-19223797D01*
X21498517Y-19274091D01*
X21498516Y-19274091D01*
X21505444Y-19274835D01*
X21558127Y-19280500D01*
X23653872Y-19280499D01*
X23713483Y-19274091D01*
X23848331Y-19223796D01*
X23963546Y-19137546D01*
X24049796Y-19022331D01*
X24100091Y-18887483D01*
X24106500Y-18827873D01*
X24106499Y-17085228D01*
X24126184Y-17018190D01*
X24178987Y-16972435D01*
X24248146Y-16962491D01*
X24311702Y-16991516D01*
X24318180Y-16997548D01*
X24625181Y-17304549D01*
X24658666Y-17365872D01*
X24661500Y-17392230D01*
X24661500Y-18827870D01*
X24661501Y-18827876D01*
X24667908Y-18887483D01*
X24718202Y-19022328D01*
X24718206Y-19022335D01*
X24804452Y-19137544D01*
X24804455Y-19137547D01*
X24919664Y-19223793D01*
X24919671Y-19223797D01*
X25054517Y-19274091D01*
X25054516Y-19274091D01*
X25061444Y-19274835D01*
X25114127Y-19280500D01*
X27209872Y-19280499D01*
X27269483Y-19274091D01*
X27404331Y-19223796D01*
X27519546Y-19137546D01*
X27605796Y-19022331D01*
X27656091Y-18887483D01*
X27662500Y-18827873D01*
X27662499Y-17085227D01*
X27682184Y-17018189D01*
X27734987Y-16972434D01*
X27804146Y-16962490D01*
X27867702Y-16991515D01*
X27874180Y-16997547D01*
X28181181Y-17304548D01*
X28214666Y-17365871D01*
X28217500Y-17392229D01*
X28217500Y-18827870D01*
X28217501Y-18827876D01*
X28223908Y-18887483D01*
X28274202Y-19022328D01*
X28274206Y-19022335D01*
X28360452Y-19137544D01*
X28360455Y-19137547D01*
X28475664Y-19223793D01*
X28475671Y-19223797D01*
X28610517Y-19274091D01*
X28610516Y-19274091D01*
X28617444Y-19274835D01*
X28670127Y-19280500D01*
X30765872Y-19280499D01*
X30825483Y-19274091D01*
X30960331Y-19223796D01*
X31075546Y-19137546D01*
X31161796Y-19022331D01*
X31212091Y-18887483D01*
X31218500Y-18827873D01*
X31218499Y-16732128D01*
X31212091Y-16672517D01*
X31161796Y-16537669D01*
X31161795Y-16537668D01*
X31161793Y-16537664D01*
X31075547Y-16422455D01*
X31075544Y-16422452D01*
X30960335Y-16336206D01*
X30960328Y-16336202D01*
X30825482Y-16285908D01*
X30825483Y-16285908D01*
X30765883Y-16279501D01*
X30765881Y-16279500D01*
X30765873Y-16279500D01*
X30765865Y-16279500D01*
X29330229Y-16279500D01*
X29263190Y-16259815D01*
X29242548Y-16243181D01*
X27998600Y-14999233D01*
X26737729Y-13738361D01*
X26725949Y-13724730D01*
X26711610Y-13705470D01*
X26673651Y-13673619D01*
X26665686Y-13666318D01*
X26661780Y-13662411D01*
X26637443Y-13643168D01*
X26634647Y-13640890D01*
X26577214Y-13592698D01*
X26571180Y-13588729D01*
X26571212Y-13588680D01*
X26564853Y-13584628D01*
X26564822Y-13584679D01*
X26558680Y-13580891D01*
X26558678Y-13580890D01*
X26558677Y-13580889D01*
X26490688Y-13549184D01*
X26487447Y-13547615D01*
X26456530Y-13532088D01*
X26420433Y-13513960D01*
X26420431Y-13513959D01*
X26420430Y-13513959D01*
X26413645Y-13511489D01*
X26413665Y-13511433D01*
X26406549Y-13508959D01*
X26406531Y-13509015D01*
X26399674Y-13506743D01*
X26326210Y-13491573D01*
X26322693Y-13490793D01*
X26249718Y-13473499D01*
X26242547Y-13472661D01*
X26242553Y-13472601D01*
X26235055Y-13471835D01*
X26235050Y-13471895D01*
X26227860Y-13471265D01*
X26152870Y-13473448D01*
X26149263Y-13473500D01*
X23153013Y-13473500D01*
X23085974Y-13453815D01*
X23040219Y-13401011D01*
X23030275Y-13331853D01*
X23059300Y-13268297D01*
X23079143Y-13249904D01*
X23241951Y-13129158D01*
X23533192Y-12865192D01*
X23797158Y-12573951D01*
X24031306Y-12258239D01*
X24233381Y-11921097D01*
X24401438Y-11565772D01*
X24533857Y-11195684D01*
X24629364Y-10814400D01*
X24687038Y-10425591D01*
X24706325Y-10033000D01*
X24687038Y-9640409D01*
X24629364Y-9251600D01*
X24533857Y-8870316D01*
X24401438Y-8500228D01*
X24233381Y-8144903D01*
X24031306Y-7807761D01*
X23797158Y-7492049D01*
X23785090Y-7478734D01*
X23533192Y-7200807D01*
X23241956Y-6936846D01*
X23237745Y-6933723D01*
X22926239Y-6702694D01*
X22926236Y-6702692D01*
X22589100Y-6500620D01*
X22233772Y-6332562D01*
X22233770Y-6332561D01*
X21863684Y-6200143D01*
X21482406Y-6104637D01*
X21482401Y-6104636D01*
X21482400Y-6104636D01*
X21299483Y-6077503D01*
X21093599Y-6046963D01*
X21093597Y-6046962D01*
X21093591Y-6046962D01*
X20701000Y-6027675D01*
X20308409Y-6046962D01*
X20308403Y-6046962D01*
X20308400Y-6046963D01*
X19919593Y-6104637D01*
X19538315Y-6200143D01*
X19168229Y-6332561D01*
X19168227Y-6332562D01*
X18812899Y-6500620D01*
X18475763Y-6702692D01*
X18160043Y-6936846D01*
X17868807Y-7200807D01*
X17604846Y-7492043D01*
X17370692Y-7807763D01*
X17168620Y-8144899D01*
X17000562Y-8500227D01*
X17000561Y-8500229D01*
X16868143Y-8870315D01*
X16772637Y-9251593D01*
X16716720Y-9628559D01*
X16714962Y-9640409D01*
X16695675Y-10033000D01*
X16714962Y-10425591D01*
X16714962Y-10425597D01*
X16714963Y-10425599D01*
X16772637Y-10814406D01*
X16868143Y-11195684D01*
X17000561Y-11565770D01*
X17000562Y-11565772D01*
X17168620Y-11921100D01*
X17369115Y-12255605D01*
X17370694Y-12258239D01*
X17582503Y-12543831D01*
X17604846Y-12573956D01*
X17868807Y-12865192D01*
X18160043Y-13129153D01*
X18160049Y-13129158D01*
X18322854Y-13249902D01*
X18364974Y-13305649D01*
X18370270Y-13375317D01*
X18337059Y-13436789D01*
X18275885Y-13470547D01*
X18248987Y-13473500D01*
X14791381Y-13473500D01*
X14724342Y-13453815D01*
X14703700Y-13437181D01*
X14493159Y-13226640D01*
X14459674Y-13165317D01*
X14464658Y-13095625D01*
X14506530Y-13039692D01*
X14571788Y-13015290D01*
X14621156Y-13011677D01*
X14733758Y-12986593D01*
X14885546Y-12952782D01*
X14885548Y-12952781D01*
X14885553Y-12952780D01*
X15138558Y-12856014D01*
X15374777Y-12723441D01*
X15589177Y-12557888D01*
X15777186Y-12362881D01*
X15934799Y-12142579D01*
X16016591Y-11983492D01*
X16058649Y-11901690D01*
X16058651Y-11901684D01*
X16058656Y-11901675D01*
X16146118Y-11645305D01*
X16195319Y-11378933D01*
X16205212Y-11108235D01*
X16175586Y-10838982D01*
X16107072Y-10576912D01*
X16001130Y-10327610D01*
X15860018Y-10096390D01*
X15770747Y-9989119D01*
X15686746Y-9888180D01*
X15686740Y-9888175D01*
X15485002Y-9707418D01*
X15259092Y-9557957D01*
X15259090Y-9557956D01*
X15013824Y-9442980D01*
X15013819Y-9442978D01*
X15013814Y-9442976D01*
X14754442Y-9364942D01*
X14754428Y-9364939D01*
X14638791Y-9347921D01*
X14486439Y-9325500D01*
X14283369Y-9325500D01*
X14283351Y-9325500D01*
X14080844Y-9340323D01*
X14080831Y-9340325D01*
X13816453Y-9399217D01*
X13816446Y-9399220D01*
X13563439Y-9495987D01*
X13327226Y-9628557D01*
X13327224Y-9628558D01*
X13327223Y-9628559D01*
X13311877Y-9640409D01*
X13112822Y-9794112D01*
X12924822Y-9989109D01*
X12924816Y-9989116D01*
X12767202Y-10209419D01*
X12767199Y-10209424D01*
X12643350Y-10450309D01*
X12643343Y-10450327D01*
X12555884Y-10706685D01*
X12555881Y-10706699D01*
X12507878Y-10966583D01*
X12476344Y-11028932D01*
X12416108Y-11064335D01*
X12346294Y-11061551D01*
X12298260Y-11031741D01*
X10616245Y-9349726D01*
X8787819Y-7521299D01*
X8754334Y-7459976D01*
X8751500Y-7433618D01*
X8751500Y-6143014D01*
X8771185Y-6075975D01*
X8823989Y-6030220D01*
X8893147Y-6020276D01*
X8907588Y-6023237D01*
X9053023Y-6062207D01*
X9257768Y-6080119D01*
X9276394Y-6081749D01*
X9276187Y-6084109D01*
X9333580Y-6100962D01*
X9354222Y-6117596D01*
X10448264Y-7211638D01*
X10460045Y-7225270D01*
X10474382Y-7244528D01*
X10474383Y-7244529D01*
X10474384Y-7244530D01*
X10481247Y-7250289D01*
X10512331Y-7276372D01*
X10520304Y-7283679D01*
X10524211Y-7287586D01*
X10524217Y-7287591D01*
X10548531Y-7306816D01*
X10551312Y-7309080D01*
X10578950Y-7332271D01*
X10608783Y-7357305D01*
X10614812Y-7361270D01*
X10614779Y-7361319D01*
X10621141Y-7365372D01*
X10621173Y-7365321D01*
X10627313Y-7369108D01*
X10627317Y-7369111D01*
X10665971Y-7387135D01*
X10695314Y-7400819D01*
X10698560Y-7402391D01*
X10765556Y-7436038D01*
X10772351Y-7438511D01*
X10772330Y-7438567D01*
X10779451Y-7441043D01*
X10779470Y-7440986D01*
X10786313Y-7443253D01*
X10786321Y-7443257D01*
X10859889Y-7458447D01*
X10863222Y-7459186D01*
X10936273Y-7476500D01*
X10936275Y-7476500D01*
X10936279Y-7476501D01*
X10943447Y-7477339D01*
X10943440Y-7477398D01*
X10950938Y-7478164D01*
X10950944Y-7478105D01*
X10958133Y-7478734D01*
X10958137Y-7478733D01*
X10958138Y-7478734D01*
X11033124Y-7476552D01*
X11036731Y-7476500D01*
X12534302Y-7476500D01*
X12552272Y-7477809D01*
X12576030Y-7481289D01*
X12625376Y-7476971D01*
X12636183Y-7476500D01*
X12641711Y-7476500D01*
X12641716Y-7476500D01*
X12672563Y-7472893D01*
X12676037Y-7472539D01*
X12750804Y-7465999D01*
X12750812Y-7465996D01*
X12757873Y-7464539D01*
X12757885Y-7464598D01*
X12765250Y-7462965D01*
X12765236Y-7462906D01*
X12772256Y-7461241D01*
X12772262Y-7461241D01*
X12842786Y-7435572D01*
X12846124Y-7434412D01*
X12917341Y-7410814D01*
X12917349Y-7410808D01*
X12923889Y-7407760D01*
X12923915Y-7407816D01*
X12930697Y-7404532D01*
X12930670Y-7404478D01*
X12937120Y-7401238D01*
X12937124Y-7401237D01*
X12999844Y-7359984D01*
X13002739Y-7358140D01*
X13066663Y-7318712D01*
X13066669Y-7318705D01*
X13072332Y-7314229D01*
X13072369Y-7314277D01*
X13078211Y-7309518D01*
X13078171Y-7309471D01*
X13083693Y-7304835D01*
X13083703Y-7304830D01*
X13135192Y-7250253D01*
X13137639Y-7247734D01*
X15153555Y-5231819D01*
X15214878Y-5198334D01*
X15241236Y-5195500D01*
X24336344Y-5195500D01*
X24403383Y-5215185D01*
X24424025Y-5231819D01*
X29641181Y-10448973D01*
X29674666Y-10510296D01*
X29677500Y-10536654D01*
X29677500Y-11595001D01*
X29677501Y-11595019D01*
X29688000Y-11697796D01*
X29688001Y-11697799D01*
X29733894Y-11836294D01*
X29743186Y-11864334D01*
X29835288Y-12013656D01*
X29959344Y-12137712D01*
X30108666Y-12229814D01*
X30275203Y-12284999D01*
X30377991Y-12295500D01*
X31375769Y-12295499D01*
X31442808Y-12315183D01*
X31463450Y-12331818D01*
X32487181Y-13355548D01*
X32520666Y-13416871D01*
X32523500Y-13443229D01*
X32523500Y-16155500D01*
X32503815Y-16222539D01*
X32451011Y-16268294D01*
X32399501Y-16279500D01*
X32226130Y-16279500D01*
X32226123Y-16279501D01*
X32166516Y-16285908D01*
X32031671Y-16336202D01*
X32031664Y-16336206D01*
X31916455Y-16422452D01*
X31916452Y-16422455D01*
X31830206Y-16537664D01*
X31830202Y-16537671D01*
X31779908Y-16672517D01*
X31773501Y-16732116D01*
X31773501Y-16732123D01*
X31773500Y-16732135D01*
X31773500Y-18827870D01*
X31773501Y-18827876D01*
X31779908Y-18887483D01*
X31830202Y-19022328D01*
X31830206Y-19022335D01*
X31916452Y-19137544D01*
X31916455Y-19137547D01*
X32031664Y-19223793D01*
X32031671Y-19223797D01*
X32166517Y-19274091D01*
X32166516Y-19274091D01*
X32173444Y-19274835D01*
X32226127Y-19280500D01*
X34321872Y-19280499D01*
X34381483Y-19274091D01*
X34516331Y-19223796D01*
X34631546Y-19137546D01*
X34717796Y-19022331D01*
X34768091Y-18887483D01*
X34774500Y-18827873D01*
X34774499Y-16732128D01*
X34768091Y-16672517D01*
X34717796Y-16537669D01*
X34717795Y-16537668D01*
X34717793Y-16537664D01*
X34631547Y-16422455D01*
X34631544Y-16422452D01*
X34516335Y-16336206D01*
X34516328Y-16336202D01*
X34381482Y-16285908D01*
X34381483Y-16285908D01*
X34321883Y-16279501D01*
X34321881Y-16279500D01*
X34321873Y-16279500D01*
X34321865Y-16279500D01*
X34148500Y-16279500D01*
X34081461Y-16259815D01*
X34035706Y-16207011D01*
X34024500Y-16155500D01*
X34024500Y-13144705D01*
X34025809Y-13126735D01*
X34026129Y-13124547D01*
X34029289Y-13102977D01*
X34024972Y-13053630D01*
X34024500Y-13042822D01*
X34024500Y-13037296D01*
X34024500Y-13037291D01*
X34020901Y-13006509D01*
X34020536Y-13002929D01*
X34013999Y-12928201D01*
X34012539Y-12921129D01*
X34012597Y-12921116D01*
X34010965Y-12913757D01*
X34010906Y-12913772D01*
X34009241Y-12906751D01*
X34009241Y-12906745D01*
X33983569Y-12836212D01*
X33982421Y-12832909D01*
X33958814Y-12761666D01*
X33958810Y-12761659D01*
X33955760Y-12755118D01*
X33955815Y-12755091D01*
X33952533Y-12748313D01*
X33952480Y-12748340D01*
X33949235Y-12741880D01*
X33908025Y-12679223D01*
X33906086Y-12676181D01*
X33866710Y-12612342D01*
X33862234Y-12606682D01*
X33862281Y-12606644D01*
X33857519Y-12600799D01*
X33857474Y-12600838D01*
X33852831Y-12595305D01*
X33830202Y-12573956D01*
X33798272Y-12543831D01*
X33795685Y-12541318D01*
X33734686Y-12480319D01*
X33701201Y-12418996D01*
X33706185Y-12349304D01*
X33748057Y-12293371D01*
X33790272Y-12272864D01*
X33822714Y-12264171D01*
X33842756Y-12258802D01*
X33912605Y-12260466D01*
X33962528Y-12290896D01*
X36043181Y-14371548D01*
X36076666Y-14432871D01*
X36079500Y-14459229D01*
X36079500Y-16155500D01*
X36059815Y-16222539D01*
X36007011Y-16268294D01*
X35955501Y-16279500D01*
X35782130Y-16279500D01*
X35782123Y-16279501D01*
X35722516Y-16285908D01*
X35587671Y-16336202D01*
X35587664Y-16336206D01*
X35472455Y-16422452D01*
X35472452Y-16422455D01*
X35386206Y-16537664D01*
X35386202Y-16537671D01*
X35335908Y-16672517D01*
X35329501Y-16732116D01*
X35329501Y-16732123D01*
X35329500Y-16732135D01*
X35329500Y-18827870D01*
X35329501Y-18827876D01*
X35335908Y-18887483D01*
X35386202Y-19022328D01*
X35386206Y-19022335D01*
X35472452Y-19137544D01*
X35472455Y-19137547D01*
X35587664Y-19223793D01*
X35587671Y-19223797D01*
X35722517Y-19274091D01*
X35722516Y-19274091D01*
X35729444Y-19274835D01*
X35782127Y-19280500D01*
X37877872Y-19280499D01*
X37937483Y-19274091D01*
X38072331Y-19223796D01*
X38187546Y-19137546D01*
X38273796Y-19022331D01*
X38324091Y-18887483D01*
X38330500Y-18827873D01*
X38330499Y-16732128D01*
X38324091Y-16672517D01*
X38273796Y-16537669D01*
X38273795Y-16537668D01*
X38273793Y-16537664D01*
X38187547Y-16422455D01*
X38187544Y-16422452D01*
X38072335Y-16336206D01*
X38072328Y-16336202D01*
X37937482Y-16285908D01*
X37937483Y-16285908D01*
X37877883Y-16279501D01*
X37877881Y-16279500D01*
X37877873Y-16279500D01*
X37877865Y-16279500D01*
X37704500Y-16279500D01*
X37637461Y-16259815D01*
X37591706Y-16207011D01*
X37580500Y-16155500D01*
X37580500Y-14160705D01*
X37581809Y-14142735D01*
X37585289Y-14118974D01*
X37580972Y-14069635D01*
X37580500Y-14058826D01*
X37580500Y-14053296D01*
X37580500Y-14053291D01*
X37576894Y-14022443D01*
X37576534Y-14018916D01*
X37569999Y-13944209D01*
X37568538Y-13937135D01*
X37568598Y-13937122D01*
X37566965Y-13929757D01*
X37566906Y-13929772D01*
X37565241Y-13922751D01*
X37565241Y-13922745D01*
X37539569Y-13852211D01*
X37538422Y-13848913D01*
X37514814Y-13777665D01*
X37514809Y-13777658D01*
X37511761Y-13771118D01*
X37511815Y-13771092D01*
X37508533Y-13764312D01*
X37508480Y-13764340D01*
X37505238Y-13757885D01*
X37470764Y-13705470D01*
X37464026Y-13695225D01*
X37462107Y-13692212D01*
X37422714Y-13628347D01*
X37418234Y-13622681D01*
X37418280Y-13622643D01*
X37413519Y-13616799D01*
X37413474Y-13616838D01*
X37408831Y-13611305D01*
X37354290Y-13559848D01*
X37351703Y-13557335D01*
X34912937Y-11118569D01*
X34879452Y-11057246D01*
X34877090Y-11020078D01*
X34878500Y-11003965D01*
X34878500Y-10586033D01*
X34878499Y-10586032D01*
X34863063Y-10409592D01*
X34809428Y-10209421D01*
X34801905Y-10181344D01*
X34801904Y-10181343D01*
X34801903Y-10181337D01*
X34702035Y-9967171D01*
X34646726Y-9888180D01*
X34566494Y-9773597D01*
X34399402Y-9606506D01*
X34399395Y-9606501D01*
X34205834Y-9470967D01*
X34205830Y-9470965D01*
X34145816Y-9442980D01*
X33991663Y-9371097D01*
X33991659Y-9371096D01*
X33991655Y-9371094D01*
X33763413Y-9309938D01*
X33763403Y-9309936D01*
X33528001Y-9289341D01*
X33527999Y-9289341D01*
X33292596Y-9309936D01*
X33292583Y-9309939D01*
X33213244Y-9331197D01*
X33143394Y-9329534D01*
X33093471Y-9299103D01*
X32880312Y-9085944D01*
X32846827Y-9024621D01*
X32851811Y-8954929D01*
X32893683Y-8898996D01*
X32959147Y-8874579D01*
X32967993Y-8874263D01*
X36864533Y-8874263D01*
X36931572Y-8893948D01*
X36952214Y-8910582D01*
X38511181Y-10469548D01*
X38544666Y-10530871D01*
X38547500Y-10557229D01*
X38547500Y-11595001D01*
X38547501Y-11595019D01*
X38558000Y-11697796D01*
X38558001Y-11697799D01*
X38603894Y-11836294D01*
X38613186Y-11864334D01*
X38705288Y-12013656D01*
X38829344Y-12137712D01*
X38978666Y-12229814D01*
X39062505Y-12257595D01*
X39119948Y-12297366D01*
X39146772Y-12361882D01*
X39147500Y-12375300D01*
X39147500Y-16271266D01*
X39127815Y-16338305D01*
X39097812Y-16370532D01*
X39028452Y-16422455D01*
X38942206Y-16537664D01*
X38942202Y-16537671D01*
X38891908Y-16672517D01*
X38885501Y-16732116D01*
X38885501Y-16732123D01*
X38885500Y-16732135D01*
X38885500Y-18827870D01*
X38885501Y-18827876D01*
X38891908Y-18887483D01*
X38942202Y-19022328D01*
X38942206Y-19022335D01*
X39028452Y-19137544D01*
X39028455Y-19137547D01*
X39143664Y-19223793D01*
X39143671Y-19223797D01*
X39278517Y-19274091D01*
X39278516Y-19274091D01*
X39285444Y-19274835D01*
X39338127Y-19280500D01*
X41433872Y-19280499D01*
X41493483Y-19274091D01*
X41628331Y-19223796D01*
X41743546Y-19137546D01*
X41829796Y-19022331D01*
X41880091Y-18887483D01*
X41886500Y-18827873D01*
X41886499Y-17085228D01*
X41906184Y-17018190D01*
X41958987Y-16972435D01*
X42028146Y-16962491D01*
X42091702Y-16991516D01*
X42098180Y-16997548D01*
X42405181Y-17304549D01*
X42438666Y-17365872D01*
X42441500Y-17392230D01*
X42441500Y-18827870D01*
X42441501Y-18827876D01*
X42447908Y-18887483D01*
X42498202Y-19022328D01*
X42498206Y-19022335D01*
X42584452Y-19137544D01*
X42584455Y-19137547D01*
X42699664Y-19223793D01*
X42699671Y-19223797D01*
X42834517Y-19274091D01*
X42834516Y-19274091D01*
X42841444Y-19274835D01*
X42894127Y-19280500D01*
X44989872Y-19280499D01*
X45049483Y-19274091D01*
X45184331Y-19223796D01*
X45299546Y-19137546D01*
X45385796Y-19022331D01*
X45436091Y-18887483D01*
X45442500Y-18827873D01*
X45442499Y-16732128D01*
X45436091Y-16672517D01*
X45385796Y-16537669D01*
X45385795Y-16537668D01*
X45385793Y-16537664D01*
X45299547Y-16422455D01*
X45299544Y-16422452D01*
X45184335Y-16336206D01*
X45184328Y-16336202D01*
X45049482Y-16285908D01*
X45049483Y-16285908D01*
X44989883Y-16279501D01*
X44989881Y-16279500D01*
X44989873Y-16279500D01*
X44989865Y-16279500D01*
X43554230Y-16279500D01*
X43487191Y-16259815D01*
X43466549Y-16243181D01*
X43184819Y-15961451D01*
X43151334Y-15900128D01*
X43148500Y-15873770D01*
X43148500Y-12132700D01*
X43168185Y-12065661D01*
X43201375Y-12031126D01*
X43269401Y-11983495D01*
X43436495Y-11816401D01*
X43572035Y-11622829D01*
X43671903Y-11408663D01*
X43733063Y-11180408D01*
X43748500Y-11003966D01*
X43748500Y-10586034D01*
X43733063Y-10409592D01*
X43679428Y-10209421D01*
X43671905Y-10181344D01*
X43671904Y-10181343D01*
X43671903Y-10181337D01*
X43572035Y-9967171D01*
X43516726Y-9888180D01*
X43436494Y-9773597D01*
X43269402Y-9606506D01*
X43269395Y-9606501D01*
X43075834Y-9470967D01*
X43075830Y-9470965D01*
X43015816Y-9442980D01*
X42861663Y-9371097D01*
X42861659Y-9371096D01*
X42861655Y-9371094D01*
X42633413Y-9309938D01*
X42633403Y-9309936D01*
X42398001Y-9289341D01*
X42397999Y-9289341D01*
X42162596Y-9309936D01*
X42162583Y-9309939D01*
X42083244Y-9331197D01*
X42013394Y-9329534D01*
X41963471Y-9299103D01*
X39602492Y-6938124D01*
X39590712Y-6924493D01*
X39576373Y-6905233D01*
X39538414Y-6873382D01*
X39530449Y-6866081D01*
X39526543Y-6862174D01*
X39502206Y-6842931D01*
X39499410Y-6840653D01*
X39441977Y-6792461D01*
X39435943Y-6788492D01*
X39435975Y-6788443D01*
X39429616Y-6784391D01*
X39429585Y-6784442D01*
X39423443Y-6780654D01*
X39423441Y-6780653D01*
X39423440Y-6780652D01*
X39355451Y-6748947D01*
X39352210Y-6747378D01*
X39321293Y-6731851D01*
X39285196Y-6713723D01*
X39285194Y-6713722D01*
X39285193Y-6713722D01*
X39278408Y-6711252D01*
X39278428Y-6711196D01*
X39271312Y-6708722D01*
X39271294Y-6708778D01*
X39264437Y-6706506D01*
X39190973Y-6691336D01*
X39187456Y-6690556D01*
X39114481Y-6673262D01*
X39107310Y-6672424D01*
X39107316Y-6672364D01*
X39099818Y-6671598D01*
X39099813Y-6671658D01*
X39092623Y-6671028D01*
X39017633Y-6673211D01*
X39014026Y-6673263D01*
X31009417Y-6673263D01*
X30942378Y-6653578D01*
X30921736Y-6636944D01*
X28488793Y-4204001D01*
X33574500Y-4204001D01*
X33574501Y-4204018D01*
X33585000Y-4306796D01*
X33585001Y-4306799D01*
X33630894Y-4445294D01*
X33640186Y-4473334D01*
X33732288Y-4622656D01*
X33856344Y-4746712D01*
X34005666Y-4838814D01*
X34172203Y-4893999D01*
X34274991Y-4904500D01*
X35575008Y-4904499D01*
X35677797Y-4893999D01*
X35844334Y-4838814D01*
X35993656Y-4746712D01*
X36117712Y-4622656D01*
X36209814Y-4473334D01*
X36209814Y-4473331D01*
X36213178Y-4467879D01*
X36265126Y-4421154D01*
X36334088Y-4409931D01*
X36398170Y-4437774D01*
X36406398Y-4445294D01*
X36553599Y-4592495D01*
X36596675Y-4622657D01*
X36747165Y-4728032D01*
X36747167Y-4728033D01*
X36747170Y-4728035D01*
X36961337Y-4827903D01*
X37189592Y-4889063D01*
X37366034Y-4904500D01*
X37424999Y-4909659D01*
X37425000Y-4909659D01*
X37425001Y-4909659D01*
X37483966Y-4904500D01*
X37660408Y-4889063D01*
X37888663Y-4827903D01*
X38102829Y-4728035D01*
X38296401Y-4592495D01*
X38463495Y-4425401D01*
X38573426Y-4268401D01*
X38628001Y-4224778D01*
X38697500Y-4217584D01*
X38759855Y-4249106D01*
X38776571Y-4268398D01*
X38847144Y-4369187D01*
X38886506Y-4425403D01*
X39053597Y-4592493D01*
X39053599Y-4592495D01*
X39096675Y-4622657D01*
X39247165Y-4728032D01*
X39247167Y-4728033D01*
X39247170Y-4728035D01*
X39461337Y-4827903D01*
X39689592Y-4889063D01*
X39866034Y-4904500D01*
X39924999Y-4909659D01*
X39925000Y-4909659D01*
X39925001Y-4909659D01*
X39983966Y-4904500D01*
X40160408Y-4889063D01*
X40388663Y-4827903D01*
X40602829Y-4728035D01*
X40796401Y-4592495D01*
X40963495Y-4425401D01*
X41073426Y-4268401D01*
X41128001Y-4224778D01*
X41197500Y-4217584D01*
X41259855Y-4249106D01*
X41276571Y-4268398D01*
X41347144Y-4369187D01*
X41386506Y-4425403D01*
X41553597Y-4592493D01*
X41553599Y-4592495D01*
X41596675Y-4622657D01*
X41747165Y-4728032D01*
X41747167Y-4728033D01*
X41747170Y-4728035D01*
X41961337Y-4827903D01*
X42189592Y-4889063D01*
X42366034Y-4904500D01*
X42424999Y-4909659D01*
X42425000Y-4909659D01*
X42425001Y-4909659D01*
X42483966Y-4904500D01*
X42660408Y-4889063D01*
X42888663Y-4827903D01*
X43102829Y-4728035D01*
X43296401Y-4592495D01*
X43463495Y-4425401D01*
X43599035Y-4231829D01*
X43698903Y-4017663D01*
X43760063Y-3789408D01*
X43775500Y-3612966D01*
X43775500Y-3245034D01*
X43760063Y-3068592D01*
X43698903Y-2840337D01*
X43599035Y-2626171D01*
X43586936Y-2608891D01*
X43463494Y-2432597D01*
X43296402Y-2265506D01*
X43296395Y-2265501D01*
X43102834Y-2129967D01*
X43102830Y-2129965D01*
X42969995Y-2068023D01*
X42888663Y-2030097D01*
X42888659Y-2030096D01*
X42888655Y-2030094D01*
X42660413Y-1968938D01*
X42660403Y-1968936D01*
X42425001Y-1948341D01*
X42424999Y-1948341D01*
X42189596Y-1968936D01*
X42189586Y-1968938D01*
X41961344Y-2030094D01*
X41961335Y-2030098D01*
X41747171Y-2129964D01*
X41747169Y-2129965D01*
X41553597Y-2265505D01*
X41386505Y-2432597D01*
X41276575Y-2589595D01*
X41221998Y-2633220D01*
X41152500Y-2640414D01*
X41090145Y-2608891D01*
X41073425Y-2589595D01*
X40963494Y-2432597D01*
X40796402Y-2265506D01*
X40796395Y-2265501D01*
X40602834Y-2129967D01*
X40602830Y-2129965D01*
X40469995Y-2068023D01*
X40388663Y-2030097D01*
X40388659Y-2030096D01*
X40388655Y-2030094D01*
X40160413Y-1968938D01*
X40160403Y-1968936D01*
X39925001Y-1948341D01*
X39924999Y-1948341D01*
X39689596Y-1968936D01*
X39689586Y-1968938D01*
X39461344Y-2030094D01*
X39461335Y-2030098D01*
X39247171Y-2129964D01*
X39247169Y-2129965D01*
X39053597Y-2265505D01*
X38886505Y-2432597D01*
X38776575Y-2589595D01*
X38721998Y-2633220D01*
X38652500Y-2640414D01*
X38590145Y-2608891D01*
X38573425Y-2589595D01*
X38463494Y-2432597D01*
X38296402Y-2265506D01*
X38296395Y-2265501D01*
X38102834Y-2129967D01*
X38102830Y-2129965D01*
X37969995Y-2068023D01*
X37888663Y-2030097D01*
X37888659Y-2030096D01*
X37888655Y-2030094D01*
X37660413Y-1968938D01*
X37660403Y-1968936D01*
X37425001Y-1948341D01*
X37424999Y-1948341D01*
X37189596Y-1968936D01*
X37189586Y-1968938D01*
X36961344Y-2030094D01*
X36961335Y-2030098D01*
X36747171Y-2129964D01*
X36747169Y-2129965D01*
X36553597Y-2265505D01*
X36406398Y-2412705D01*
X36345075Y-2446190D01*
X36275383Y-2441206D01*
X36219450Y-2399334D01*
X36213178Y-2390120D01*
X36117712Y-2235344D01*
X35993657Y-2111289D01*
X35993656Y-2111288D01*
X35900888Y-2054069D01*
X35844336Y-2019187D01*
X35844331Y-2019185D01*
X35842862Y-2018698D01*
X35677797Y-1964001D01*
X35677795Y-1964000D01*
X35575010Y-1953500D01*
X34274998Y-1953500D01*
X34274981Y-1953501D01*
X34172203Y-1964000D01*
X34172200Y-1964001D01*
X34005668Y-2019185D01*
X34005663Y-2019187D01*
X33856342Y-2111289D01*
X33732289Y-2235342D01*
X33640187Y-2384663D01*
X33640185Y-2384668D01*
X33621450Y-2441206D01*
X33585001Y-2551203D01*
X33585001Y-2551204D01*
X33585000Y-2551204D01*
X33574500Y-2653983D01*
X33574500Y-4204001D01*
X28488793Y-4204001D01*
X26085153Y-1800361D01*
X26073373Y-1786730D01*
X26059034Y-1767470D01*
X26021075Y-1735619D01*
X26013110Y-1728318D01*
X26009204Y-1724411D01*
X25984867Y-1705168D01*
X25982071Y-1702890D01*
X25924638Y-1654698D01*
X25918604Y-1650729D01*
X25918636Y-1650680D01*
X25912277Y-1646628D01*
X25912246Y-1646679D01*
X25906104Y-1642891D01*
X25906102Y-1642890D01*
X25906101Y-1642889D01*
X25838112Y-1611184D01*
X25834871Y-1609615D01*
X25803954Y-1594088D01*
X25767857Y-1575960D01*
X25767855Y-1575959D01*
X25767854Y-1575959D01*
X25761069Y-1573489D01*
X25761089Y-1573433D01*
X25753973Y-1570959D01*
X25753955Y-1571015D01*
X25747098Y-1568743D01*
X25673634Y-1553573D01*
X25670117Y-1552793D01*
X25597142Y-1535499D01*
X25589971Y-1534661D01*
X25589977Y-1534601D01*
X25582479Y-1533835D01*
X25582474Y-1533895D01*
X25575284Y-1533265D01*
X25500294Y-1535448D01*
X25496687Y-1535500D01*
X14146624Y-1535500D01*
X14079585Y-1515815D01*
X14045048Y-1482622D01*
X14042598Y-1479123D01*
X14042596Y-1479121D01*
X13887877Y-1324402D01*
X13708639Y-1198898D01*
X13708640Y-1198898D01*
X13708638Y-1198897D01*
X13609484Y-1152661D01*
X13510330Y-1106425D01*
X13510326Y-1106424D01*
X13510322Y-1106422D01*
X13298977Y-1049793D01*
X13081002Y-1030723D01*
X13080998Y-1030723D01*
X12935682Y-1043436D01*
X12863023Y-1049793D01*
X12863020Y-1049793D01*
X12651677Y-1106422D01*
X12651668Y-1106426D01*
X12453361Y-1198898D01*
X12453357Y-1198900D01*
X12274121Y-1324402D01*
X12119402Y-1479121D01*
X11993900Y-1658357D01*
X11993898Y-1658361D01*
X11923382Y-1809583D01*
X11877209Y-1862022D01*
X11810016Y-1881174D01*
X11743135Y-1860958D01*
X11698618Y-1809583D01*
X11684118Y-1778488D01*
X11628102Y-1658362D01*
X11628100Y-1658359D01*
X11628099Y-1658357D01*
X11502599Y-1479124D01*
X11502596Y-1479121D01*
X11347877Y-1324402D01*
X11168639Y-1198898D01*
X11168640Y-1198898D01*
X11168638Y-1198897D01*
X11069484Y-1152661D01*
X10970330Y-1106425D01*
X10970326Y-1106424D01*
X10970322Y-1106422D01*
X10758977Y-1049793D01*
X10541002Y-1030723D01*
X10540998Y-1030723D01*
X10395682Y-1043436D01*
X10323023Y-1049793D01*
X10323020Y-1049793D01*
X10111677Y-1106422D01*
X10111668Y-1106426D01*
X9913361Y-1198898D01*
X9913357Y-1198900D01*
X9734121Y-1324402D01*
X9579402Y-1479121D01*
X9453900Y-1658357D01*
X9453898Y-1658361D01*
X9383382Y-1809583D01*
X9337209Y-1862022D01*
X9270016Y-1881174D01*
X9203135Y-1860958D01*
X9158618Y-1809583D01*
X9144118Y-1778488D01*
X9088102Y-1658362D01*
X9088100Y-1658359D01*
X9088099Y-1658357D01*
X8962599Y-1479124D01*
X8962596Y-1479121D01*
X8807877Y-1324402D01*
X8628639Y-1198898D01*
X8628640Y-1198898D01*
X8628638Y-1198897D01*
X8529484Y-1152661D01*
X8430330Y-1106425D01*
X8430326Y-1106424D01*
X8430322Y-1106422D01*
X8218977Y-1049793D01*
X8001002Y-1030723D01*
X8000998Y-1030723D01*
X7855682Y-1043436D01*
X7783023Y-1049793D01*
X7783020Y-1049793D01*
X7571677Y-1106422D01*
X7571668Y-1106426D01*
X7373361Y-1198898D01*
X7373357Y-1198900D01*
X7194121Y-1324402D01*
X7039402Y-1479121D01*
X6913900Y-1658357D01*
X6913898Y-1658361D01*
X6843382Y-1809583D01*
X6797209Y-1862022D01*
X6730016Y-1881174D01*
X6663135Y-1860958D01*
X6618618Y-1809583D01*
X6604118Y-1778488D01*
X6548102Y-1658362D01*
X6548100Y-1658359D01*
X6548099Y-1658357D01*
X6422599Y-1479124D01*
X6422596Y-1479121D01*
X6267877Y-1324402D01*
X6088639Y-1198898D01*
X6088640Y-1198898D01*
X6088638Y-1198897D01*
X5989484Y-1152661D01*
X5890330Y-1106425D01*
X5890326Y-1106424D01*
X5890322Y-1106422D01*
X5678977Y-1049793D01*
X5461002Y-1030723D01*
X5460998Y-1030723D01*
X5315682Y-1043436D01*
X5243023Y-1049793D01*
X5243020Y-1049793D01*
X5031677Y-1106422D01*
X5031668Y-1106426D01*
X4833361Y-1198898D01*
X4833357Y-1198900D01*
X4654121Y-1324402D01*
X4499402Y-1479121D01*
X4373900Y-1658357D01*
X4373898Y-1658361D01*
X4281426Y-1856668D01*
X4281422Y-1856677D01*
X4224793Y-2068020D01*
X4224793Y-2068023D01*
X4205723Y-2286000D01*
X4219737Y-2446190D01*
X4224793Y-2503975D01*
X4224793Y-2503979D01*
X4281422Y-2715322D01*
X4281424Y-2715326D01*
X4281425Y-2715330D01*
X4303382Y-2762416D01*
X4373897Y-2913638D01*
X4373898Y-2913639D01*
X4499402Y-3092877D01*
X4651557Y-3245032D01*
X4654123Y-3247598D01*
X4657622Y-3250048D01*
X4701248Y-3304625D01*
X4710500Y-3351624D01*
X4710500Y-3451500D01*
X4690815Y-3518539D01*
X4638011Y-3564294D01*
X4586500Y-3575500D01*
X3393129Y-3575500D01*
X3393123Y-3575501D01*
X3333516Y-3581908D01*
X3198671Y-3632202D01*
X3198664Y-3632206D01*
X3083455Y-3718452D01*
X3083452Y-3718455D01*
X2997206Y-3833664D01*
X2997202Y-3833671D01*
X2946908Y-3968517D01*
X2940501Y-4028116D01*
X2940500Y-4028135D01*
X2940500Y-5623870D01*
X500Y-5623870D01*
X500Y-251500D01*
X20185Y-184461D01*
X72989Y-138706D01*
X124500Y-127500D01*
X45722500Y-127500D01*
X45789539Y-147185D01*
G37*
%TD.AperFunction*%
%TA.AperFunction,NonConductor*%
G36*
X9338865Y-2711041D02*
G01*
X9383381Y-2762414D01*
X9453898Y-2913639D01*
X9579402Y-3092877D01*
X9731557Y-3245032D01*
X9734123Y-3247598D01*
X9737622Y-3250048D01*
X9781248Y-3304625D01*
X9790500Y-3351624D01*
X9790500Y-3508985D01*
X9770815Y-3576024D01*
X9718011Y-3621779D01*
X9648853Y-3631723D01*
X9634407Y-3628760D01*
X9488977Y-3589793D01*
X9271002Y-3570723D01*
X9270998Y-3570723D01*
X9152844Y-3581060D01*
X9053023Y-3589793D01*
X9053020Y-3589793D01*
X8907593Y-3628760D01*
X8837743Y-3627097D01*
X8779881Y-3587934D01*
X8752377Y-3523705D01*
X8751500Y-3508985D01*
X8751500Y-3351624D01*
X8771185Y-3284585D01*
X8804378Y-3250048D01*
X8804432Y-3250009D01*
X8807877Y-3247598D01*
X8962598Y-3092877D01*
X9088102Y-2913639D01*
X9158618Y-2762414D01*
X9204790Y-2709977D01*
X9271984Y-2690825D01*
X9338865Y-2711041D01*
G37*
%TD.AperFunction*%
%TA.AperFunction,NonConductor*%
G36*
X6798865Y-2711041D02*
G01*
X6843381Y-2762414D01*
X6913898Y-2913639D01*
X7039402Y-3092877D01*
X7191557Y-3245032D01*
X7194123Y-3247598D01*
X7197622Y-3250048D01*
X7241248Y-3304625D01*
X7250500Y-3351624D01*
X7250500Y-3508985D01*
X7230815Y-3576024D01*
X7178011Y-3621779D01*
X7108853Y-3631723D01*
X7094407Y-3628760D01*
X6948977Y-3589793D01*
X6731002Y-3570723D01*
X6730998Y-3570723D01*
X6612844Y-3581060D01*
X6513023Y-3589793D01*
X6513020Y-3589793D01*
X6367593Y-3628760D01*
X6297743Y-3627097D01*
X6239881Y-3587934D01*
X6212377Y-3523705D01*
X6211500Y-3508985D01*
X6211500Y-3351624D01*
X6231185Y-3284585D01*
X6264378Y-3250048D01*
X6264432Y-3250009D01*
X6267877Y-3247598D01*
X6422598Y-3092877D01*
X6548102Y-2913639D01*
X6618618Y-2762414D01*
X6664790Y-2709977D01*
X6731984Y-2690825D01*
X6798865Y-2711041D01*
G37*
%TD.AperFunction*%
%TA.AperFunction,NonConductor*%
G36*
X11878865Y-2711041D02*
G01*
X11923381Y-2762414D01*
X11993898Y-2913639D01*
X12119402Y-3092877D01*
X12274123Y-3247598D01*
X12453361Y-3373102D01*
X12470294Y-3380998D01*
X12522731Y-3427166D01*
X12541885Y-3494359D01*
X12521671Y-3561241D01*
X12505570Y-3581060D01*
X12438037Y-3648593D01*
X12376714Y-3682078D01*
X12307022Y-3677094D01*
X12297952Y-3673294D01*
X12240336Y-3646427D01*
X12240322Y-3646422D01*
X12028977Y-3589793D01*
X11811002Y-3570723D01*
X11810998Y-3570723D01*
X11692844Y-3581060D01*
X11593023Y-3589793D01*
X11593020Y-3589793D01*
X11447593Y-3628760D01*
X11377743Y-3627097D01*
X11319881Y-3587934D01*
X11292377Y-3523705D01*
X11291500Y-3508985D01*
X11291500Y-3351624D01*
X11311185Y-3284585D01*
X11344378Y-3250048D01*
X11344432Y-3250009D01*
X11347877Y-3247598D01*
X11502598Y-3092877D01*
X11628102Y-2913639D01*
X11698618Y-2762414D01*
X11744790Y-2709977D01*
X11811984Y-2690825D01*
X11878865Y-2711041D01*
G37*
%TD.AperFunction*%
%TA.AperFunction,NonConductor*%
G36*
X38731572Y-8193948D02*
G01*
X38752214Y-8210582D01*
X39624451Y-9082819D01*
X39657936Y-9144142D01*
X39652952Y-9213834D01*
X39611080Y-9269767D01*
X39545616Y-9294184D01*
X39536770Y-9294500D01*
X39510230Y-9294500D01*
X39443191Y-9274815D01*
X39422549Y-9258181D01*
X38550312Y-8385944D01*
X38516827Y-8324621D01*
X38521811Y-8254929D01*
X38563683Y-8198996D01*
X38629147Y-8174579D01*
X38637993Y-8174263D01*
X38664533Y-8174263D01*
X38731572Y-8193948D01*
G37*
%TD.AperFunction*%
%TA.AperFunction,NonConductor*%
G36*
X25866809Y-14994185D02*
G01*
X25887451Y-15010819D01*
X26944451Y-16067819D01*
X26977936Y-16129142D01*
X26972952Y-16198834D01*
X26931080Y-16254767D01*
X26865616Y-16279184D01*
X26856770Y-16279500D01*
X25774230Y-16279500D01*
X25707191Y-16259815D01*
X25686549Y-16243181D01*
X24629549Y-15186181D01*
X24596064Y-15124858D01*
X24601048Y-15055166D01*
X24642920Y-14999233D01*
X24708384Y-14974816D01*
X24717230Y-14974500D01*
X25799770Y-14974500D01*
X25866809Y-14994185D01*
G37*
%TD.AperFunction*%
%TA.AperFunction,NonConductor*%
G36*
X23010809Y-15694185D02*
G01*
X23031451Y-15710819D01*
X23388451Y-16067819D01*
X23421936Y-16129142D01*
X23416952Y-16198834D01*
X23375080Y-16254767D01*
X23309616Y-16279184D01*
X23300770Y-16279500D01*
X22218230Y-16279500D01*
X22151191Y-16259815D01*
X22130549Y-16243181D01*
X21773549Y-15886181D01*
X21740064Y-15824858D01*
X21745048Y-15755166D01*
X21786920Y-15699233D01*
X21852384Y-15674816D01*
X21861230Y-15674500D01*
X22943770Y-15674500D01*
X23010809Y-15694185D01*
G37*
%TD.AperFunction*%
%TA.AperFunction,NonConductor*%
G36*
X41371170Y-11828774D02*
G01*
X41379387Y-11836283D01*
X41526599Y-11983495D01*
X41594623Y-12031125D01*
X41638248Y-12085701D01*
X41647500Y-12132700D01*
X41647500Y-16165587D01*
X41627815Y-16232626D01*
X41575011Y-16278381D01*
X41505853Y-16288325D01*
X41494988Y-16286264D01*
X41493485Y-16285909D01*
X41433883Y-16279501D01*
X41433881Y-16279500D01*
X41433873Y-16279500D01*
X41433865Y-16279500D01*
X40772500Y-16279500D01*
X40705461Y-16259815D01*
X40659706Y-16207011D01*
X40648500Y-16155500D01*
X40648500Y-12375300D01*
X40668185Y-12308261D01*
X40720989Y-12262506D01*
X40733482Y-12257599D01*
X40817334Y-12229814D01*
X40966656Y-12137712D01*
X41090712Y-12013656D01*
X41182814Y-11864334D01*
X41182814Y-11864331D01*
X41186178Y-11858879D01*
X41238126Y-11812154D01*
X41307088Y-11800931D01*
X41371170Y-11828774D01*
G37*
%TD.AperFunction*%
M02*
