M48
INCH
T1C0.0299
T2C0.0374
T3C0.0394
T4C0.1378
%
G90
G05
T1
X0.165Y-0.19
X0.215Y-0.09
X0.265Y-0.19
X0.315Y-0.09
X0.365Y-0.19
X0.415Y-0.09
X0.465Y-0.19
X0.515Y-0.09
T2
X1.375Y-0.135
X1.4734Y-0.135
X1.5719Y-0.135
X1.6703Y-0.135
T3
X0.75Y-0.7
X0.89Y-0.7
X1.03Y-0.7
X1.17Y-0.7
X1.2216Y-0.425
X1.31Y-0.7
X1.32Y-0.425
X1.45Y-0.7
X1.5708Y-0.425
X1.59Y-0.7
X1.6692Y-0.425
X1.73Y-0.7
T4
X0.815Y-0.395
M30
